<svg width="20" height="20" viewBox="0 0 20 20" fill="none" xmlns="http://www.w3.org/2000/svg">
<g id="Icon/General" clip-path="url(#clip0_136_8375)">
<path id="Vector" d="M16.125 19.9974C15.1572 19.9974 14.1328 19.7591 13.0728 19.5113C11.9833 19.2574 10.865 18.9939 9.75805 18.9939C8.65022 18.9939 7.5624 19.2635 6.51022 19.5243C4.34761 20.0617 2.30674 20.5704 0.560657 18.4296L0.43457 18.247L0.467614 18.0383C0.95544 14.7887 2.61892 12.1739 5.14935 10.68L5.46761 10.4922L5.72501 10.7643C6.2691 11.3557 6.92969 11.8281 7.66522 12.1518C8.40075 12.4755 9.19531 12.6435 9.99892 12.6452C11.6154 12.6452 13.1607 11.9652 14.272 10.7643L14.525 10.4922L14.8476 10.68C17.3807 12.1783 19.0441 14.7913 19.532 18.0374L19.565 18.2609L19.4276 18.4296C19.0425 18.9358 18.5416 19.3423 17.967 19.6151C17.3924 19.8879 16.7607 20.019 16.125 19.9974ZM9.76848 18.5591C10.9241 18.5591 12.0702 18.827 13.178 19.0878C15.5015 19.6313 17.5094 20.1017 19.0989 18.1513L19.1137 18.1339V18.113C18.645 14.9913 17.0563 12.4948 14.6389 11.0652L14.6076 11.0478L14.5841 11.0739C14.0001 11.7051 13.2922 12.2092 12.5046 12.5545C11.717 12.8998 10.8667 13.079 10.0067 13.0809C9.1467 13.0792 8.29625 12.9002 7.50851 12.555C6.72077 12.2099 6.01268 11.706 5.42848 11.0748L5.4024 11.0478L5.37196 11.0652C2.94153 12.4948 1.35196 14.9957 0.885005 18.113V18.1357L0.900657 18.153C2.47283 20.0817 4.30153 19.627 6.42066 19.1009C7.48674 18.8357 8.59457 18.5591 9.76848 18.5591ZM9.99718 11.8078C6.80935 11.8078 4.22501 9.16435 4.22501 5.90348C4.22501 2.64261 6.80935 0 9.99718 0C13.1859 0 15.7702 2.64348 15.7702 5.90435C15.7659 9.16348 13.1841 11.8043 9.99718 11.8087V11.8078ZM9.99718 0.437391C7.83457 0.437391 5.88414 1.76957 5.05805 3.81391C4.22935 5.85739 4.68761 8.21043 6.21718 9.77391C6.95574 10.5362 7.90759 11.0572 8.94769 11.2686C9.98779 11.4799 11.0675 11.3718 12.045 10.9583C14.0433 10.1113 15.3459 8.11652 15.345 5.90435C15.3424 2.88435 12.9502 0.436522 9.99718 0.432174V0.437391Z" fill="black"/>
</g>
<defs>
<clipPath id="clip0_136_8375">
<rect width="20" height="20" fill="white"/>
</clipPath>
</defs>
</svg>
